
<svg id="Layer_1" data-name="Layer 1" xmlns="http://www.w3.org/2000/svg" viewBox="0 0 309.33333 101.33333"><defs><style>.cls-1,.cls-2{fill:#000;}.cls-1{fill-rule:evenodd;}</style></defs><title>plisse_spa-logo</title><path class="cls-1" d="M237.94719,18.08577c-2.55607.71469-4.45514-.66769-6.4732-1.48806-1.20143-.48676-2.33722-1.13633-3.50451-1.70743-.76112-.37147-1.41442-.84436-1.21958-1.8163a1.22544,1.22544,0,0,1,1.09416-1.05254,2.36654,2.36654,0,0,1,.66075.00481,5.68013,5.68013,0,0,1,2.46694.68105c2.34256,1.67754,4.57521,3.5088,6.97544,5.37848"/><path class="cls-1" d="M123.21936,39.64024V23.55393h5.25787c-.01178-.19055-.02246-.38434-.03418-.57538H118.43756v-.00018H108.43c-.01178.19165-.02246.38483-.03418.57538h5.25732V52.84367h-5.25732c.01172.1911.0224.38434.03418.57538h10.00549v.00018h10.00757c.01172-.1911.0224-.38428.03418-.57538h-5.25787Z"/><path class="cls-1" d="M97.24107,53.30858H76.2737V52.231c.12277.05978.26687.20015.41418.20015,4.89171.09126,9.81172.60046,14.58386-1.17156a7.41749,7.41749,0,0,0,4.77642-6.60128h1.179c.0208,2.86725.01388,5.7377.01388,8.65029"/><path class="cls-1" d="M76.2688,39.58757V23.56791H81.469c-.01123-.19-.02185-.38263-.03308-.57318H71.53876v-.00012H61.63953c-.01123.19055-.02191.38324-.03363.57324h5.2002V52.73661H61.6059c.01172.19055.0224.38324.03363.57324h9.89716V53.31h9.89923c.01123-.19055.02185-.38269.03308-.57324H76.2688Z"/><path class="cls-2" d="M46.7583,23.85081a28.02843,28.02843,0,0,0-7.47821-1.04663c-1.43732-.00427-2.87451.0083-4.31177.02972H26.96771V22.834H16.50641c-.01172.191-.02295.38483-.03522.57538h5.49646V52.71153H16.47119c.01227.1911.0235.38483.03522.57587H37.43115c.01172-.1911.02295-.38483.03522-.57538H31.96991V38.54c1.47827-.05768,2.84766-.12549,4.2113-.15607,3.749-.08539,7.43872-.48889,10.852-2.34308a7.47468,7.47468,0,0,0,3.99182-4.168A6.10334,6.10334,0,0,0,46.7583,23.85081Zm-4.62054,7.56573c-.126,2.77655-1.47528,4.82178-4.042,5.481a55.58509,55.58509,0,0,1-6.12585.978V23.59648c2.3847.12408,4.62927.19891,6.84747.44647a3.29985,3.29985,0,0,1,2.87628,2.8219A19.17934,19.17934,0,0,1,42.13776,31.41654Z"/><path class="cls-1" d="M244.67157,24.3054a9.94527,9.94527,0,0,1,2.99475,1.82708,7.39308,7.39308,0,0,1,2.47919,5.30585h.88715c.02185-2.84265.01544-5.68481.01544-8.57288H233.90283l.00006.00024H219.28137c-.01123.19269-.02246.38751-.03363.57965h5.30585V52.95249h-5.30585c.01117.1922.0224.387.03363.57965H251.0481c0-2.89178.00641-5.73767-.01544-8.58356h-.88715a7.39558,7.39558,0,0,1-2.47919,5.31976,9.80267,9.80267,0,0,1-6.2597,2.47443c-2.35107.08582-4.707.02393-7.19763.02148V38.26255c1.47137-.004,2.7804-.042,4.076.00824,2.88007.11206,4.12469,1.337,4.55438,4.39691h.96234c0-3.66357.00586-7.33032-.01868-10.99445h-.86841v.01068c-.23541,2.56885-.91858,3.63208-3.19122,4.03931a42.68129,42.68129,0,0,1-5.51447.35229V23.63334c2.4906-.00244,4.84656-.06433,7.19763.02148a10.049,10.049,0,0,1,3.265.65058"/><path class="cls-1" d="M155.62282,52.58927l-.30156.78246v.00375H141.67036v-.79313c0-2.5406-.00319-5.0465.01442-7.55187h1.05946a7.39134,7.39134,0,0,0,2.71246,4.94774,11.45069,11.45069,0,0,0,7.008,2.57583c.62448.02135,2.02128.02829,2.84216.03149.11956,0,.2247.00373.316.00373"/><path class="cls-1" d="M166.00621,31.67475h.89506c.01762-2.44611.01388-4.89544.01388-7.37252v-1.116H153.91063v.84545h.1297c.10141-.00321.19961-.00321.30156-.00321.58977-.00694,1.20037-.04217,1.77894-.02135a11.43552,11.43552,0,0,1,7.008,2.57956,7.63265,7.63265,0,0,1,1.28471,1.32635c.063.08753.126.17559.18574.26312l.01067.01388c.04911.07046.095.14037.13664.21084a1.38018,1.38018,0,0,1,.07739.12969c.04163.06672.08059.13343.11583.20015a.49063.49063,0,0,1,.05551.10141,2.10413,2.10413,0,0,1,.10568.2039.0349.0349,0,0,1,.00694.01761,1.22359,1.22359,0,0,1,.08753.18574l.00373.00694a.27866.27866,0,0,1,.0315.06672l.01067.02455c.02829.06352.056.1233.08113.18948.0064.01388.01013.02829.01707.04217a1.88153,1.88153,0,0,1,.07419.19641.6355.6355,0,0,1,.02722.0774c.039.0982.07046.20015.10249.30529.03095.09447.05551.18948.08379.28769a.0937.0937,0,0,0,.00748.03149c.02776.10568.05551.21084.07686.31919.01067.05284.02455.10941.03522.16546.01015.056.02456.11208.0315.16813.01067.056.02082.10887.02828.16492.02456.13023.04163.25618.05551.38962Z"/><path class="cls-1" d="M155.41589,52.93667l-.095.435v.00375l-13.65035-.79313c0-2.5406-.00373-5.0465.01388-7.55187h1.06a7.3895,7.3895,0,0,0,2.71246,4.94828,11.45331,11.45331,0,0,0,7.008,2.57529c.68051.02508,2.09118.34426,2.84216.37895.03842.00373.07366.00373.10889.00373"/><path class="cls-1" d="M166.00621,31.67475l.90894-7.37252-13.00452-1.10911a15.70521,15.70521,0,0,0-9.34895,2.62173c-4.34089,2.88432-4.23521,9.87094.33359,12.35176a29.62254,29.62254,0,0,0,6.74484,2.31267c2.7717.71255,5.63894,1.03866,8.40051,1.76882,2.14455.561,3.948,1.733,4.288,4.22827a5.17513,5.17513,0,0,1-3.2067,4.95148,14.9295,14.9295,0,0,1-1.57934.593,12.36552,12.36552,0,0,1-3.91977.56843c-.10514,0-.21084-.00375-.316-.00694v.35119l.00375.43819h.01013a18.16825,18.16825,0,0,0,6.09262-.55775c3.00014-.81769,5.66349-2.13389,7.28446-4.97978,2.78984-4.89544.97566-10.085-4.28432-11.94131a45.3009,45.3009,0,0,0-5.45694-1.34769c-3.19336-.70187-6.42513-1.27724-9.59715-2.06343a3.33022,3.33022,0,0,1-2.67455-3.1197,4.04561,4.04561,0,0,1,2.0597-3.80021,9.76776,9.76776,0,0,1,5.166-1.53023h.1297c.10141-.00321.19961-.00321.30156-.00321.58977-.00694,1.20037-.04217,1.77894-.02135a11.43552,11.43552,0,0,1,7.008,2.57956,7.63265,7.63265,0,0,1,1.28471,1.32635c.063.08432.126.17559.18574.26312l.01067.01388c.04911.07046.095.14037.13664.21084a1.38018,1.38018,0,0,1,.07739.12969c.04163.06672.08059.13343.11583.20015a.49063.49063,0,0,1,.05551.10141,2.10413,2.10413,0,0,1,.10568.2039.0349.0349,0,0,1,.00694.01761,1.22359,1.22359,0,0,1,.08753.18574l.00373.00694a.27866.27866,0,0,1,.0315.06672l.01067.02455c.02829.06352.056.1233.08113.18948.0064.01388.01013.02829.01707.04217a1.88153,1.88153,0,0,1,.07419.19641.6355.6355,0,0,1,.02722.0774c.039.0982.07046.20015.10249.30529.03095.09447.05551.18948.08379.28769a.0937.0937,0,0,0,.00748.03149c.02776.10568.05551.21084.07686.31919.01067.05284.02455.10941.03522.16546.01015.056.02456.11208.0315.16813.01067.056.02082.10887.02828.16492.02456.13023.04163.25618.05551.38962Z"/><path class="cls-1" d="M196.44385,52.59061l-.30156.78246v.00375H182.49138v-.79313c0-2.5406-.00319-5.046.01443-7.55187h1.05946a7.38972,7.38972,0,0,0,2.713,4.94774,11.45094,11.45094,0,0,0,7.00743,2.57637c.625.02082,2.02129.02776,2.84271.03149.119,0,.22416.00319.31544.00319"/><path class="cls-1" d="M206.82776,31.676h.895c.0171-2.44611.01388-4.89491.01388-7.37252v-1.116h-13.005v.846h.12969c.102-.00373.20015-.00373.30212-.00373.58925-.00694,1.20036-.04217,1.77892-.02082a11.4302,11.4302,0,0,1,7.00746,2.579,7.63136,7.63136,0,0,1,1.2847,1.32635c.063.08806.1265.17559.18575.26312l.01069.01442c.04961.06993.095.13984.13715.2103a1.27009,1.27009,0,0,1,.07688.12969c.04215.06672.08112.13343.11581.20015a.483.483,0,0,1,.056.10195,2.222,2.222,0,0,1,.10568.20336.03379.03379,0,0,1,.00642.01761,1.159,1.159,0,0,1,.08806.18627l.00323.00694a.89707.89707,0,0,1,.04215.09126c.02828.063.05659.12277.08112.18948.00642.01388.01016.02776.01762.04163a1.81834,1.81834,0,0,1,.07366.19694.74049.74049,0,0,1,.02776.07686c.039.0982.07046.20015.10193.30529.0315.095.05606.18948.08434.28769a.09251.09251,0,0,0,.00694.03149c.02776.10568.056.21084.07685.31971.01121.05284.02456.10889.03577.16494.01013.056.02456.11208.03095.16813.01069.056.02137.10887.02831.16546.02453.12969.04215.25565.056.38908Z"/><path class="cls-1" d="M196.23692,52.938l-.095.435v.00375l-13.65035-.79313c0-2.5406-.00371-5.046.01388-7.55187h1.06a7.38678,7.38678,0,0,0,2.713,4.94828,11.4536,11.4536,0,0,0,7.00743,2.57583c.68053.02455,2.09172.34372,2.84271.37895.03841.00319.07366.00319.10835.00319"/><path class="cls-1" d="M206.82776,31.676l.90892-7.37252-13.005-1.10911a15.70465,15.70465,0,0,0-9.34843,2.62173c-4.34087,2.88432-4.23519,9.87094.33307,12.35228a29.62013,29.62013,0,0,0,6.74483,2.31215c2.77225.71255,5.63894,1.03866,8.40106,1.76882,2.144.56148,3.948,1.73357,4.288,4.22827a5.17648,5.17648,0,0,1-3.20725,4.95148,14.9655,14.9655,0,0,1-1.5788.593,12.36863,12.36863,0,0,1-3.92029.56843c-.1046,0-.21032-.00321-.31544-.00694v.35119l.00319.43819h.01013a18.16714,18.16714,0,0,0,6.09264-.55775c3.00013-.81769,5.66347-2.13389,7.285-4.97978,2.78984-4.89491.97515-10.085-4.28486-11.94131a45.37583,45.37583,0,0,0-5.45694-1.34769c-3.19282-.70187-6.42512-1.27724-9.59712-2.06343a3.3297,3.3297,0,0,1-2.674-3.1197,4.04458,4.04458,0,0,1,2.0597-3.80021,9.76059,9.76059,0,0,1,5.1655-1.52971h.12969c.102-.00373.20015-.00373.30212-.00373.58925-.00694,1.20036-.04217,1.77892-.02082a11.4302,11.4302,0,0,1,7.00746,2.579,7.63136,7.63136,0,0,1,1.2847,1.32635c.063.08433.1265.17559.18575.26312l.01069.01442c.04961.06993.095.13984.13715.2103a1.27009,1.27009,0,0,1,.07688.12969c.04215.06672.08112.13343.11581.20015a.483.483,0,0,1,.056.10195,2.222,2.222,0,0,1,.10568.20336.03379.03379,0,0,1,.00642.01761,1.159,1.159,0,0,1,.08806.18627l.00323.00694a.89707.89707,0,0,1,.04215.09126c.02828.063.05659.12277.08112.18948.00642.01388.01016.02776.01762.04163a1.81834,1.81834,0,0,1,.07366.19694.74049.74049,0,0,1,.02776.07686c.039.0982.07046.20015.10193.30529.0315.095.05606.18948.08434.28769a.09251.09251,0,0,0,.00694.03149c.02776.10568.056.21084.07685.31971.01121.05284.02456.10889.03577.16494.01013.056.02456.11208.03095.16813.01069.056.02137.10887.02831.16546.02453.12969.04215.25565.056.38908Z"/><path class="cls-2" d="M50.57884,83.08309a.22944.22944,0,0,1-.27443.27469h-.19207a.22965.22965,0,0,1-.27443-.27469V74.02675a.22953.22953,0,0,1,.27443-.27417h4.72051a.22953.22953,0,0,1,.27443.27417v.11a.22953.22953,0,0,1-.27443.27417H50.85353a.20236.20236,0,0,0-.27469.27469v3.00488a.20236.20236,0,0,0,.27469.27469h3.29312a.22953.22953,0,0,1,.27443.27417v.11a.22953.22953,0,0,1-.27443.27417H50.85353a.20236.20236,0,0,0-.27469.27469Z"/><path class="cls-2" d="M66.04369,76.44212a2.4506,2.4506,0,0,1,1.70129.63121,2.08061,2.08061,0,0,1,.7,1.61894v4.39083a.22965.22965,0,0,1-.27443.27469h-.16471a.22965.22965,0,0,1-.27443-.27469v-.3977a2.83557,2.83557,0,0,1-1.77009.72711,2.47679,2.47679,0,0,1-1.7839-.56241,2.1902,2.1902,0,0,1,0-3.35515,2.46123,2.46123,0,0,1,1.7839-.56918,2.91951,2.91951,0,0,1,1.77009.72711v-.96062a1.42666,1.42666,0,0,0-.52827-1.15244,1.827,1.827,0,0,0-1.20065-.4394,1.98412,1.98412,0,0,0-1.44094.63121.22657.22657,0,0,1-.37059,0l-.06854-.06828a.25417.25417,0,0,1,0-.39822A2.46467,2.46467,0,0,1,66.04369,76.44212Zm-.055,3.142a1.96328,1.96328,0,0,0-1.31037.41177,1.41307,1.41307,0,0,0-.56944,1.18006,1.39467,1.39467,0,0,0,.56944,1.17329,1.98047,1.98047,0,0,0,1.31037.405,2.35371,2.35371,0,0,0,1.74273-.74119V80.32527A2.35371,2.35371,0,0,0,65.9887,79.58408Z"/><path class="cls-2" d="M78.3108,78.15748a.90937.90937,0,0,0,.37033.72763,3.355,3.355,0,0,0,.9085.51237q.53869.2111,1.07034.41907a2.86285,2.86285,0,0,1,.93691.59212,1.38923,1.38923,0,0,1,.44591.93248,1.677,1.677,0,0,1-.57622,1.50218,2.63309,2.63309,0,0,1-1.78286.56918,4.54678,4.54678,0,0,1-2.19567-.59q-.20562-.10946-.08235-.3977l.04118-.08235q.10985-.2197.43913-.05473a4.40747,4.40747,0,0,0,1.79772.4665,2.02517,2.02517,0,0,0,1.1725-.31586.99537.99537,0,0,0,.4592-.86524,1.00975,1.00975,0,0,0-.37007-.78966,2.91483,2.91483,0,0,0-.8986-.52227q-.52931-.19937-1.07086-.404a2.73364,2.73364,0,0,1-.94629-.59524,1.44371,1.44371,0,0,1-.44617-.9674,1.51578,1.51578,0,0,1,.56944-1.32444,2.30916,2.30916,0,0,1,1.54362-.528,3.658,3.658,0,0,1,1.77009.48005q.206.11024.08235.3977l-.04118.08235q-.10985.2197-.43913.05525a3.3935,3.3935,0,0,0-1.37213-.357,1.5805,1.5805,0,0,0-1.02239.29554A.936.936,0,0,0,78.3108,78.15748Z"/><path class="cls-2" d="M91.88151,74.02675v3.07368a2.91279,2.91279,0,0,1,1.60538-.65831,2.41809,2.41809,0,0,1,1.76332.56918,2.07035,2.07035,0,0,1,.77533,1.681v4.39083a.22965.22965,0,0,1-.27443.27469H95.5864a.22965.22965,0,0,1-.27443-.27469V78.69226a1.42644,1.42644,0,0,0-.55563-1.18006,1.91276,1.91276,0,0,0-1.29682-.41177,2.42229,2.42229,0,0,0-1.578.64528v5.33738a.22965.22965,0,0,1-.27443.27469h-.16471a.22965.22965,0,0,1-.27443-.27469V74.02675a.22953.22953,0,0,1,.27443-.27417h.16471a.22953.22953,0,0,1,.27443.27417Z"/><path class="cls-2" d="M105.40452,75.39236a.49338.49338,0,0,1-.14412-.36382.5167.5167,0,0,1,.14412-.37059.48067.48067,0,0,1,.36356-.15064.51489.51489,0,0,1,.52149.52123.48225.48225,0,0,1-.1509.36382.51758.51758,0,0,1-.37059.14386A.49277.49277,0,0,1,105.40452,75.39236Zm.00678,1.37865a.22953.22953,0,0,1,.27443-.27417h.16471a.22953.22953,0,0,1,.27443.27417v6.31208a.22965.22965,0,0,1-.27443.27469h-.16471a.22965.22965,0,0,1-.27443-.27469Z"/><path class="cls-2" d="M120.8897,79.50173v.85117a3.09879,3.09879,0,0,1-.7821,2.25692,2.83347,2.83347,0,0,1-3.952,0,3.09989,3.09989,0,0,1-.7821-2.25692v-.85117a3.09905,3.09905,0,0,1,.7821-2.25692,2.83347,2.83347,0,0,1,3.952,0A3.098,3.098,0,0,1,120.8897,79.50173Zm-4.25375,2.628a2.10346,2.10346,0,0,0,2.99133,0,2.74438,2.74438,0,0,0,.54911-1.85922v-.68646a2.74438,2.74438,0,0,0-.54911-1.85922,2.10346,2.10346,0,0,0-2.99133,0,2.74437,2.74437,0,0,0-.54885,1.85922v.68646A2.74437,2.74437,0,0,0,116.636,82.12976Z"/><path class="cls-2" d="M130.85168,76.771v.32942a2.91279,2.91279,0,0,1,1.60538-.65831,2.41943,2.41943,0,0,1,1.76358.56918,2.07283,2.07283,0,0,1,.77559,1.681v4.39083a.23047.23047,0,0,1-.27521.27469h-.16471a.22938.22938,0,0,1-.27417-.27469V78.69226a1.42715,1.42715,0,0,0-.55563-1.18006,1.9119,1.9119,0,0,0-1.29682-.41177,2.42229,2.42229,0,0,0-1.578.64528v5.33738a.22965.22965,0,0,1-.27443.27469h-.16471a.22965.22965,0,0,1-.27443-.27469V76.771a.22953.22953,0,0,1,.27443-.27417h.16471a.22953.22953,0,0,1,.27443.27417Z"/><path class="cls-2" d="M158.0757,83.41251a3.74276,3.74276,0,0,1-2.77867-1.118,4.28914,4.28914,0,0,1-1.10448-3.14926V77.96515a4.29,4.29,0,0,1,1.10448-3.14926,3.74318,3.74318,0,0,1,2.77867-1.11856,3.67993,3.67993,0,0,1,2.71664,1.0706.23021.23021,0,0,1,0,.38415l-.09591.09591a.2399.2399,0,0,1-.38415,0,3.03522,3.03522,0,0,0-2.23659-.89182,2.94166,2.94166,0,0,0-2.28454.93977,3.97382,3.97382,0,0,0-.85794,2.76512v.98825a3.9715,3.9715,0,0,0,.85794,2.7646,3.31992,3.31992,0,0,0,4.14377.39144,1.46525,1.46525,0,0,0,.70679-1.05705V78.89815a.20236.20236,0,0,0-.27469-.27469h-1.78364a.2298.2298,0,0,1-.27469-.27417v-.11a.2298.2298,0,0,1,.27469-.27417h2.52483a.2298.2298,0,0,1,.27469.27417v2.88187a2.04759,2.04759,0,0,1-.94707,1.54388A3.69154,3.69154,0,0,1,158.0757,83.41251Z"/><path class="cls-2" d="M171.34513,76.771v.34349a2.86639,2.86639,0,0,1,1.70181-.67238,2.21752,2.21752,0,0,1,1.35832.43887q.26035.19233.10946.3977l-.09591.1376q-.17826.24706-.37059.08235a1.76381,1.76381,0,0,0-1.13888-.39822,2.53248,2.53248,0,0,0-1.56421.63121v5.35145a.22938.22938,0,0,1-.27417.27469h-.16471a.22993.22993,0,0,1-.27469-.27469V76.771a.2298.2298,0,0,1,.27469-.27417h.16471a.22926.22926,0,0,1,.27417.27417Z"/><path class="cls-2" d="M188.37419,79.50173v.85117a3.0978,3.0978,0,0,1-.78236,2.25692,2.83347,2.83347,0,0,1-3.952,0,3.09978,3.09978,0,0,1-.78184-2.25692v-.85117a3.09894,3.09894,0,0,1,.78184-2.25692,2.83347,2.83347,0,0,1,3.952,0A3.097,3.097,0,0,1,188.37419,79.50173Zm-4.25375,2.628a2.10346,2.10346,0,0,0,2.99133,0,2.74709,2.74709,0,0,0,.54885-1.85922v-.68646a2.74709,2.74709,0,0,0-.54885-1.85922,2.10346,2.10346,0,0,0-2.99133,0,2.74165,2.74165,0,0,0-.54885,1.85922v.68646A2.74165,2.74165,0,0,0,184.12044,82.12976Z"/><path class="cls-2" d="M201.51957,83.08309v-.43887a3.04246,3.04246,0,0,1-1.66063.76829,2.16951,2.16951,0,0,1-2.37367-2.25014V76.771a.22926.22926,0,0,1,.27417-.27417h.16471a.2298.2298,0,0,1,.27469.27417v4.39135a1.5163,1.5163,0,0,0,.48005,1.18684,1.63885,1.63885,0,0,0,1.20769.405,2.6022,2.6022,0,0,0,1.633-.74119V76.771a.22926.22926,0,0,1,.27417-.27417h.16471a.2298.2298,0,0,1,.27469.27417v6.31208a.22993.22993,0,0,1-.27469.27469h-.16471a.22938.22938,0,0,1-.27417-.27469Z"/><path class="cls-2" d="M212.46954,82.61659V86.445a.2298.2298,0,0,1-.27417.27469h-.16471a.23035.23035,0,0,1-.27469-.27469V76.771a.2298.2298,0,0,1,.27469-.27417h.16471a.22926.22926,0,0,1,.27417.27417v.467a2.40987,2.40987,0,0,1,1.61946-.79592,2.311,2.311,0,0,1,1.9275.75474,3.26688,3.26688,0,0,1,.76151,2.30487v.85117a3.26688,3.26688,0,0,1-.76151,2.30487,2.31249,2.31249,0,0,1-1.9275.75474A2.4495,2.4495,0,0,1,212.46954,82.61659Zm3.59543-2.346v-.68646a2.84486,2.84486,0,0,0-.5353-1.87955,1.75162,1.75162,0,0,0-1.4683-.6041,1.89286,1.89286,0,0,0-1.59183.86472v3.92433a1.89286,1.89286,0,0,0,1.59183.86472,1.75015,1.75015,0,0,0,1.4683-.6041A2.84486,2.84486,0,0,0,216.065,80.27054Z"/><path class="cls-2" d="M270.199,46.62967c-.3458-1.11431-.8453-1.88279-2.01725-1.88279a1.16584,1.16584,0,0,0-1.19117,1.24878c0,.82613.55716,1.21037,1.633,1.70989,1.65226.78771,2.47838,1.36405,2.47838,2.63207a2.86031,2.86031,0,0,1-3.13157,2.67048,5.02326,5.02326,0,0,1-2.28627-.53794c-.09607-.55716-.269-1.61382-.3458-2.24783l.55713-.09605c.34584,1.22958,1.01825,2.22861,2.36312,2.22861a1.28125,1.28125,0,0,0,1.34483-1.30643c0-.86454-.51872-1.30643-1.537-1.80594-1.34483-.65321-2.43994-1.268-2.43994-2.65128,0-1.40248,1.19114-2.47836,2.9971-2.47836a9.88747,9.88747,0,0,1,1.84437.24975c.05763.46109.19211,1.67147.28817,2.13256Zm3.55517,6.41686A1.14559,1.14559,0,0,1,272.5823,51.817a1.16684,1.16684,0,0,1,1.17192-1.22958,1.19789,1.19789,0,0,1,1.21039,1.22958A1.17559,1.17559,0,0,1,273.75422,53.04653Zm2.34449-8.29965a12.46669,12.46669,0,0,0,2.78577-.82613v1.537c.05763-.03841,1.5946-.92218,1.67145-.96059a2.714,2.714,0,0,1,1.11432-.38424,3.46765,3.46765,0,0,1,3.40053,3.66951c0,2.92025-2.30546,4.76461-4.82224,5.22571a3.18215,3.18215,0,0,1-1.36405-.34582v2.59365c0,1.42168.1537,1.537,1.633,1.67145v.53794h-4.55326v-.53794c1.2488-.13448,1.4025-.23055,1.4025-1.51775V46.6681c0-1.15273-.03844-1.22958-1.268-1.40248Zm2.78577,6.57056a2.78372,2.78372,0,0,0,1.82515.74927c1.67145,0,2.74733-1.40248,2.74733-3.55424,0-2.07491-1.21036-3.24685-2.57441-3.24685a3.843,3.843,0,0,0-1.99806.82611Zm8.81958,1.72909A1.14558,1.14558,0,0,1,286.5321,51.817a1.16682,1.16682,0,0,1,1.17195-1.22958,1.1979,1.1979,0,0,1,1.21036,1.22958A1.1756,1.1756,0,0,1,287.704,53.04653Zm8.8747-.03842a1.40682,1.40682,0,0,1-.903-.365,1.80389,1.80389,0,0,1-.46109-.86456,6.04113,6.04113,0,0,1-2.30546,1.22958,2.35643,2.35643,0,0,1-2.34387-2.36309,1.95555,1.95555,0,0,1,1.57538-1.92122,15.12876,15.12876,0,0,0,3.03554-1.2488v-.38424c0-1.36405-.69164-2.15176-1.69067-2.15176a1.1146,1.1146,0,0,0-.903.44187,4.12174,4.12174,0,0,0-.51872,1.2488.53482.53482,0,0,1-.55716.44187.9239.9239,0,0,1-.8453-.84533c0-.269.24973-.4995.634-.76849a8.06839,8.06839,0,0,1,2.76655-1.34483,2.52435,2.52435,0,0,1,2.59367,2.74733v3.708c0,.88374.32658,1.15273.67242,1.15273a1.52627,1.52627,0,0,0,.69164-.21134l.19211.53794Zm-1.40246-4.86068c-.42268.21134-1.34487.61479-1.78674.80693-.73.3266-1.17195.69164-1.17195,1.40248a1.39735,1.39735,0,0,0,1.38328,1.47933,2.55181,2.55181,0,0,0,1.57541-.69164Z"/></svg>
